<svg x="0px" y="0px"
     width="32px" height="32px"
     viewBox="0 0 32 32"
     baseProfile="basic"
     version="1.1"
     xmlns="http://www.w3.org/2000/svg"
     xmlns:xlink="http://www.w3.org/1999/xlink"
     xml:space="preserve"
     style="fill-rule:evenodd;clip-rule:evenodd;stroke-linejoin:round;stroke-miterlimit:1.41421;">
    <path d="M27.946,26.044c-0.628,-1.175 -1.34,-2.507 -1.34,-4.598c0,-3.497 1.951,-4.727 2.031,-4.776c0.289,-0.169 0.383,-0.54 0.213,-0.827c-0.172,-0.287 -0.544,-0.381 -0.833,-0.212c-0.107,0.064 -2.625,1.595 -2.625,5.815c0,2.392 0.821,3.93 1.481,5.165c0.473,0.885 0.847,1.584 0.847,2.383c0,0.573 -0.126,0.986 -0.363,1.197c-0.241,0.215 -0.556,0.183 -0.562,0.183c-0.029,-0.004 -0.058,-0.006 -0.088,-0.006l-2.235,0c0.26,-0.405 0.413,-0.884 0.413,-1.399l0,-27.221c0,-0.272 -0.182,-0.509 -0.445,-0.582c-0.262,-0.074 -0.541,0.037 -0.682,0.269l-2.967,4.882c-0.91,-0.017 -3.584,-0.038 -11.59,-0.038c-1.7,0 -2.542,0.001 -2.967,0.004l-2.732,-5.231c-0.13,-0.247 -0.413,-0.375 -0.683,-0.309c-0.272,0.067 -0.464,0.309 -0.464,0.587l0,27.638c0,1.437 1.176,2.607 2.622,2.607l21.697,0c0.04,0.003 0.097,0.007 0.167,0.007c0.297,0 0.831,-0.066 1.302,-0.469c0.525,-0.452 0.791,-1.164 0.791,-2.12c0,-1.099 -0.479,-1.998 -0.988,-2.949l0,0l0,0Zm-19.193,-10.244c-1.168,0 -2.118,-0.944 -2.118,-2.105c0,-1.161 0.95,-2.105 2.118,-2.105c1.167,0 2.117,0.944 2.117,2.105c0,1.161 -0.95,2.105 -2.117,2.105l0,0l0,0Zm5.93,2.426l-0.449,0l-0.049,0.839c-0.018,0.321 -0.286,0.569 -0.606,0.569c-0.011,0 -0.023,-0.001 -0.035,-0.001c-0.335,-0.02 -0.591,-0.305 -0.571,-0.638l0.045,-0.768l-0.461,0c-0.335,0 -0.607,-0.271 -0.607,-0.604c0,-0.334 0.272,-0.604 0.607,-0.604l2.126,0c0.335,0 0.607,0.27 0.607,0.604c0,0.333 -0.272,0.603 -0.607,0.603l0,0l0,0Zm3.804,-2.426c-1.167,0 -2.117,-0.944 -2.117,-2.105c0,-1.161 0.95,-2.105 2.117,-2.105c1.168,0 2.119,0.944 2.119,2.105c0,1.161 -0.951,2.105 -2.119,2.105l0,0Z" style="fill:#8cc6fc;fill-rule:nonzero;stroke:#000;stroke-width:0.08px;"/><path d="M18.487,13.226c0.499,0 0.903,0.402 0.903,0.898c0,0.495 -0.404,0.897 -0.903,0.897c-0.498,0 -0.903,-0.402 -0.903,-0.897c0,-0.496 0.405,-0.898 0.903,-0.898l0,0l0,0Z" style="fill:#265989;fill-rule:nonzero;"/>
    <ellipse cx="8.753" cy="14.123" rx="0.903" ry="0.898" style="fill:#265989;"/>
</svg>